<svg xmlns="http://www.w3.org/2000/svg" xmlns:xlink="http://www.w3.org/1999/xlink" width="67" height="67" viewBox="0 0 67 67">
  <g style="isolation: isolate">
    <g>
      <image width="67" height="67" opacity="0.3" xlink:href="art-white1.png" style="mix-blend-mode: luminosity"/>
      <g>
        <path d="M43.33,19.3072l3.1112,3.1193s-2.9144,4.1236-7.21,8.99l-4.9-4.8994C39.2059,22.2223,43.33,19.3072,43.33,19.3072Z" fill="#f4f4f4"/>
        <polygon points="13.247 11.166 16.913 13.003 17.828 13.461 12.675 18.613 12.218 17.699 10.381 14.032 9.581 12.432 11.638 10.366 13.247 11.166" fill="#f4f4f4"/>
        <polygon points="8.299 10.26 7 7.785 9.474 9.092 11.067 9.917 9.132 11.844 8.299 10.26" fill="#f4f4f4"/>
        <path d="M11.81,56.012a1.47,1.47,0,1,1-2.0823-2.074S18.8406,42.71,25.7161,35.0915l4.94,4.9411C23.0377,46.8991,11.81,56.012,11.81,56.012Z" fill="#f4f4f4"/>
        <polygon points="43.95 49.896 32.445 38.39 27.357 33.304 13.704 19.65 18.865 14.489 19.551 15.175 32.518 28.151 37.597 33.23 49.103 44.743 49.112 44.743 49.798 45.429 44.644 50.59 43.95 49.896" fill="#f4f4f4"/>
        <path d="M54.4431,55.2281A3.9308,3.9308,0,0,1,51.74,56.453a3.0409,3.0409,0,0,1-1.9434-.71l-4.1237-4.1319,5.1526-5.1534.6941.6949,3.43,3.4378A3.3677,3.3677,0,0,1,54.4431,55.2281Z" fill="#f4f4f4"/>
        <path d="M54.8922,17.2331c-3.7162,4.6789-7.341,4.1971-7.341,4.1971l-3.1519-3.1438s-.6533-2.4987.8165-3.9685c1.1432-1.1432,2.6049-1.5352,4.9566-1.8046,2.017-.2368,3.6746-4.728,3.6746-4.728S57.8808,13.4768,54.8922,17.2331Z" fill="#f4f4f4"/>
      </g>
    </g>
  </g>
</svg>
