<svg xmlns="http://www.w3.org/2000/svg" xmlns:xlink="http://www.w3.org/1999/xlink" width="31.6466" height="30.5096" viewBox="0 0 31.6466 30.5096">
  <g style="isolation: isolate">
    <g>
      <path d="M29.3234,0h-27A2.33,2.33,0,0,0,0,2.3232V28.1865A2.33,2.33,0,0,0,2.3232,30.51H9.4086a7.4355,7.4355,0,0,1,12.8294,0h7.0854a2.33,2.33,0,0,0,2.3232-2.3231V2.3232A2.33,2.33,0,0,0,29.3234,0Z" fill="#a967aa"/>
      <g>
        <image width="106" height="105" transform="translate(3.7108 2.2046) scale(0.24)" opacity="0.3" xlink:href="Art1.png" style="mix-blend-mode: luminosity"/>
        <g>
          <path d="M20.3472,9.2669,21.5367,10.46S20.4224,12.0363,18.78,13.897l-1.8733-1.8732C18.7705,10.3815,20.3472,9.2669,20.3472,9.2669Z" fill="#edf4f4"/>
          <polygon points="8.845 6.154 10.247 6.857 10.597 7.032 8.627 9.002 8.452 8.652 7.749 7.25 7.444 6.638 8.23 5.848 8.845 6.154" fill="#edf4f4"/>
          <polygon points="6.953 5.808 6.457 4.862 7.403 5.361 8.012 5.677 7.272 6.413 6.953 5.808" fill="#edf4f4"/>
          <path d="M8.2958,23.3008a.5619.5619,0,1,1-.7961-.793s3.4843-4.2929,6.1131-7.2058l1.8889,1.8892C12.5887,19.8166,8.2958,23.3008,8.2958,23.3008Z" fill="#edf4f4"/>
          <polygon points="20.584 20.962 16.185 16.563 14.24 14.619 9.02 9.398 10.993 7.425 11.256 7.687 16.214 12.648 18.155 14.59 22.555 18.992 22.558 18.992 22.82 19.255 20.85 21.228 20.584 20.962" fill="#edf4f4"/>
          <path d="M24.5964,23.0011a1.5032,1.5032,0,0,1-1.0334.4683,1.1627,1.1627,0,0,1-.7431-.2716l-1.5767-1.58,1.97-1.97.2654.2656L24.79,21.2278A1.2875,1.2875,0,0,1,24.5964,23.0011Z" fill="#edf4f4"/>
          <path d="M24.7681,8.4739c-1.4209,1.789-2.8068,1.6048-2.8068,1.6048l-1.2051-1.202a1.7407,1.7407,0,0,1,.3122-1.5174,2.9226,2.9226,0,0,1,1.8951-.69c.7712-.0906,1.405-1.8078,1.405-1.8078S25.9108,7.0378,24.7681,8.4739Z" fill="#edf4f4"/>
        </g>
      </g>
    </g>
  </g>
</svg>
