<svg xmlns="http://www.w3.org/2000/svg" width="34.9193" height="48.6726" viewBox="0 0 34.9193 48.6726">
  <g>
    <path d="M25.7117,31.7429H7.0892A3.9193,3.9193,0,0,1,3.1743,27.828v-9.84a1.0581,1.0581,0,1,1,2.1161,0v9.84a1.8008,1.8008,0,0,0,1.7988,1.7987H25.7117a1.8008,1.8008,0,0,0,1.7988-1.7987v-9.84a1.0581,1.0581,0,0,1,2.1162,0v9.84A3.9193,3.9193,0,0,1,25.7117,31.7429Z" fill="#f4f4f4"/>
    <path d="M22.608,27.5105H10.1929a2.7894,2.7894,0,0,1-2.7863-2.7862V2.7863A2.7894,2.7894,0,0,1,10.1929,0H22.608a2.7894,2.7894,0,0,1,2.7863,2.7863V24.7241A2.7893,2.7893,0,0,1,22.608,27.5105ZM10.1929,2.1162a.6709.6709,0,0,0-.67.67V24.7241a.6709.6709,0,0,0,.67.67H22.608a.6709.6709,0,0,0,.67-.67V2.7863a.6709.6709,0,0,0-.67-.67Z" fill="#f4f4f4"/>
    <path d="M21.1619,35.9753H12.6971a1.0581,1.0581,0,0,1-1.0581-1.0581V30.6848a1.0582,1.0582,0,0,1,1.0581-1.0581h8.4648A1.0583,1.0583,0,0,1,22.22,30.6848v4.2324A1.0581,1.0581,0,0,1,21.1619,35.9753Zm-7.4067-2.1162h6.3486V31.7429H13.7552v2.1162Z" fill="#f4f4f4"/>
    <path d="M19.0457,44.44a1.0582,1.0582,0,0,1-1.0581-1.0581V35.9753H15.8714V43.382a1.0581,1.0581,0,0,1-2.1162,0V34.9172a1.0581,1.0581,0,0,1,1.0581-1.0581h4.2324a1.0582,1.0582,0,0,1,1.0581,1.0581V43.382A1.0581,1.0581,0,0,1,19.0457,44.44Z" fill="#f4f4f4"/>
    <path d="M29.0976,17.9877H24.3362A1.0581,1.0581,0,0,1,23.2781,16.93V13.7553a1.0581,1.0581,0,0,1,1.0581-1.0581h4.7614a2.6453,2.6453,0,1,1,0,5.2905Zm-3.7033-2.1162h3.7033a.5291.5291,0,1,0,0-1.0581H25.3943Z" fill="#f4f4f4"/>
    <path d="M8.4647,17.9877H3.7033a2.6453,2.6453,0,0,1,0-5.29H8.4647a1.0581,1.0581,0,0,1,1.0581,1.0581V16.93A1.0581,1.0581,0,0,1,8.4647,17.9877ZM3.7033,14.8134a.5291.5291,0,0,0,0,1.0581H7.4066V14.8134Z" fill="#f4f4f4"/>
    <path d="M28.5686,14.8134a1.0581,1.0581,0,0,1-1.0581-1.0581V10.581a1.0581,1.0581,0,0,1,2.1162,0v3.1743A1.0581,1.0581,0,0,1,28.5686,14.8134Z" fill="#f4f4f4"/>
    <path d="M4.2324,14.8134a1.0581,1.0581,0,0,1-1.0581-1.0581V10.581a1.0581,1.0581,0,1,1,2.1161,0v3.1743A1.058,1.058,0,0,1,4.2324,14.8134Z" fill="#f4f4f4"/>
    <path d="M33.8612,48.6725H1.0581a1.0581,1.0581,0,0,1-.9464-1.5313,8.667,8.667,0,0,1,7.7945-4.8173H27.011a8.6666,8.6666,0,0,1,7.7633,4.7554,1.0585,1.0585,0,0,1-.9131,1.5932ZM3.0586,46.5563h28.8A6.5594,6.5594,0,0,0,27.011,44.44H7.9062A6.56,6.56,0,0,0,3.0586,46.5563Z" fill="#f4f4f4"/>
    <path d="M11.6392,24.3362a1.0586,1.0586,0,1,1,.7481-.31A1.0657,1.0657,0,0,1,11.6392,24.3362Z" fill="#f4f4f4"/>
    <path d="M14.8135,24.3362a1.0586,1.0586,0,1,1,.7481-.31A1.0638,1.0638,0,0,1,14.8135,24.3362Z" fill="#f4f4f4"/>
    <path d="M17.9878,24.3362a1.0587,1.0587,0,1,1,.748-.31A1.0657,1.0657,0,0,1,17.9878,24.3362Z" fill="#f4f4f4"/>
    <path d="M21.1621,24.3362a1.0587,1.0587,0,1,1,.748-.31A1.0656,1.0656,0,0,1,21.1621,24.3362Z" fill="#f4f4f4"/>
    <path d="M13.7554,21.162a1.0586,1.0586,0,1,1,.7481-.31A1.0662,1.0662,0,0,1,13.7554,21.162Z" fill="#f4f4f4"/>
    <path d="M16.93,21.162a1.0587,1.0587,0,1,1,.748-.31A1.0662,1.0662,0,0,1,16.93,21.162Z" fill="#f4f4f4"/>
    <path d="M20.104,21.162a1.0587,1.0587,0,1,1,.748-.31A1.066,1.066,0,0,1,20.104,21.162Z" fill="#f4f4f4"/>
    <path d="M11.6392,17.9877a1.0586,1.0586,0,1,1,.7481-.31A1.0662,1.0662,0,0,1,11.6392,17.9877Z" fill="#f4f4f4"/>
    <path d="M14.8135,17.9877a1.0586,1.0586,0,1,1,.7481-.31A1.0642,1.0642,0,0,1,14.8135,17.9877Z" fill="#f4f4f4"/>
    <path d="M17.9878,17.9877a1.0587,1.0587,0,1,1,.748-.31A1.064,1.064,0,0,1,17.9878,17.9877Z" fill="#f4f4f4"/>
    <path d="M21.1621,17.9877a1.0587,1.0587,0,1,1,.748-.31A1.064,1.064,0,0,1,21.1621,17.9877Z" fill="#f4f4f4"/>
    <path d="M12.6973,14.8134a1.0586,1.0586,0,1,1,.7481-.31A1.0638,1.0638,0,0,1,12.6973,14.8134Z" fill="#f4f4f4"/>
    <path d="M15.8716,14.8134a1.0587,1.0587,0,1,1,.7481-.31A1.0657,1.0657,0,0,1,15.8716,14.8134Z" fill="#f4f4f4"/>
    <path d="M19.0459,14.8134a1.0587,1.0587,0,1,1,.748-.31A1.0657,1.0657,0,0,1,19.0459,14.8134Z" fill="#f4f4f4"/>
    <path d="M11.6392,11.6391a1.0584,1.0584,0,1,1,.7481-.31A1.0661,1.0661,0,0,1,11.6392,11.6391Z" fill="#f4f4f4"/>
    <path d="M14.8135,11.6391a1.0584,1.0584,0,1,1,.7481-.31A1.0661,1.0661,0,0,1,14.8135,11.6391Z" fill="#f4f4f4"/>
    <path d="M17.9878,11.6391a1.0586,1.0586,0,1,1,.748-.31A1.0639,1.0639,0,0,1,17.9878,11.6391Z" fill="#f4f4f4"/>
    <path d="M21.1621,11.6391a1.0586,1.0586,0,1,1,.748-.31A1.0639,1.0639,0,0,1,21.1621,11.6391Z" fill="#f4f4f4"/>
    <path d="M11.6392,5.2905a1.0584,1.0584,0,1,1,.7481-.31A1.0641,1.0641,0,0,1,11.6392,5.2905Z" fill="#f4f4f4"/>
    <path d="M14.8135,5.2905a1.0584,1.0584,0,1,1,.7481-.31A1.0641,1.0641,0,0,1,14.8135,5.2905Z" fill="#f4f4f4"/>
    <path d="M17.9878,5.2905a1.0586,1.0586,0,1,1,.748-.31A1.0639,1.0639,0,0,1,17.9878,5.2905Z" fill="#f4f4f4"/>
    <path d="M21.1621,5.2905a1.0586,1.0586,0,1,1,.748-.31A1.0659,1.0659,0,0,1,21.1621,5.2905Z" fill="#f4f4f4"/>
    <path d="M13.7554,8.4648a1.0584,1.0584,0,1,1,.7481-.31A1.0661,1.0661,0,0,1,13.7554,8.4648Z" fill="#f4f4f4"/>
    <path d="M16.93,8.4648a1.0586,1.0586,0,1,1,.748-.31A1.0661,1.0661,0,0,1,16.93,8.4648Z" fill="#f4f4f4"/>
    <path d="M20.104,8.4648a1.0586,1.0586,0,1,1,.748-.31A1.0639,1.0639,0,0,1,20.104,8.4648Z" fill="#f4f4f4"/>
  </g>
</svg>
