<svg xmlns="http://www.w3.org/2000/svg" width="31.6466" height="30.5096" viewBox="0 0 31.6466 30.5096">
  <g>
    <path d="M29.3234,0h-27A2.33,2.33,0,0,0,0,2.3232V28.1865A2.33,2.33,0,0,0,2.3232,30.51H9.4086a7.4355,7.4355,0,0,1,12.8294,0h7.0854a2.33,2.33,0,0,0,2.3232-2.3231V2.3232A2.33,2.33,0,0,0,29.3234,0Z" fill="#a967aa"/>
    <g>
      <path d="M18.9784,16.9214h-7.12a1.4985,1.4985,0,0,1-1.4968-1.4969V11.6622a.4046.4046,0,1,1,.8091,0v3.7623a.6885.6885,0,0,0,.6877.6878h7.12a.6885.6885,0,0,0,.6878-.6878V11.6622a.4046.4046,0,1,1,.8091,0v3.7623A1.4986,1.4986,0,0,1,18.9784,16.9214Z" fill="#edf4f4"/>
      <path d="M17.7917,15.3032H13.0449A1.0665,1.0665,0,0,1,11.98,14.2379V5.85a1.0665,1.0665,0,0,1,1.0653-1.0653h4.7468A1.0665,1.0665,0,0,1,18.8571,5.85v8.3878A1.0666,1.0666,0,0,1,17.7917,15.3032ZM13.0449,5.5938a.2565.2565,0,0,0-.2562.2562v8.3878a.2565.2565,0,0,0,.2562.2562h4.7468a.2565.2565,0,0,0,.2562-.2562V5.85a.2565.2565,0,0,0-.2562-.2562Z" fill="#edf4f4"/>
      <path d="M17.2388,18.54H14.0024a.4045.4045,0,0,1-.4046-.4045V16.5169a.4046.4046,0,0,1,.4046-.4046h3.2364a.4047.4047,0,0,1,.4046.4046v1.6182A.4045.4045,0,0,1,17.2388,18.54Zm-2.8319-.8091h2.4274v-.8091H14.4069v.8091Z" fill="#edf4f4"/>
      <path d="M16.43,21.7761a.4046.4046,0,0,1-.4045-.4046V18.54H15.216v2.8319a.4046.4046,0,1,1-.8091,0V18.1351a.4046.4046,0,0,1,.4046-.4046H16.43a.4047.4047,0,0,1,.4046.4046v3.2364A.4046.4046,0,0,1,16.43,21.7761Z" fill="#edf4f4"/>
      <path d="M20.273,11.6622h-1.82a.4047.4047,0,0,1-.4046-.4046V10.0439a.4046.4046,0,0,1,.4046-.4045h1.82a1.0114,1.0114,0,1,1,0,2.0228Zm-1.4159-.8091H20.273a.2023.2023,0,0,0,0-.4046H18.8571Z" fill="#edf4f4"/>
      <path d="M12.3841,11.6622H10.5636a1.0114,1.0114,0,0,1,0-2.0228h1.8205a.4045.4045,0,0,1,.4046.4045v1.2137A.4046.4046,0,0,1,12.3841,11.6622Zm-1.8205-1.2137a.2023.2023,0,0,0,0,.4046H11.98v-.4046Z" fill="#edf4f4"/>
      <path d="M20.0707,10.4485a.4045.4045,0,0,1-.4045-.4046V8.83a.4046.4046,0,1,1,.8091,0v1.2136A.4045.4045,0,0,1,20.0707,10.4485Z" fill="#edf4f4"/>
      <path d="M10.7659,10.4485a.4045.4045,0,0,1-.4045-.4046V8.83a.4046.4046,0,1,1,.8091,0v1.2136A.4045.4045,0,0,1,10.7659,10.4485Z" fill="#edf4f4"/>
      <path d="M22.0943,23.3943H9.5522a.4046.4046,0,0,1-.3618-.5855,3.3137,3.3137,0,0,1,2.98-1.8418h7.3046a3.3137,3.3137,0,0,1,2.9683,1.8182.4047.4047,0,0,1-.3492.6091Zm-11.7772-.8091H21.3286a2.5083,2.5083,0,0,0-1.8534-.8091H12.1706A2.5083,2.5083,0,0,0,10.3171,22.5852Z" fill="#edf4f4"/>
      <path d="M13.5979,14.09a.4049.4049,0,1,1,.286-.1186A.4073.4073,0,0,1,13.5979,14.09Z" fill="#edf4f4"/>
      <path d="M14.8116,14.09a.4048.4048,0,1,1,.286-.1186A.407.407,0,0,1,14.8116,14.09Z" fill="#edf4f4"/>
      <path d="M16.0252,14.09a.4049.4049,0,1,1,.286-.1186A.4075.4075,0,0,1,16.0252,14.09Z" fill="#edf4f4"/>
      <path d="M17.2389,14.09a.4049.4049,0,1,1,.286-.1186A.4073.4073,0,0,1,17.2389,14.09Z" fill="#edf4f4"/>
      <path d="M14.407,12.8758a.4048.4048,0,1,1,.286-.1185A.4076.4076,0,0,1,14.407,12.8758Z" fill="#edf4f4"/>
      <path d="M15.6207,12.8758a.4046.4046,0,1,1,.286-.1185A.4076.4076,0,0,1,15.6207,12.8758Z" fill="#edf4f4"/>
      <path d="M16.8344,12.8758a.4048.4048,0,1,1,.2859-.1185A.4081.4081,0,0,1,16.8344,12.8758Z" fill="#edf4f4"/>
      <path d="M13.5979,11.6622a.4049.4049,0,1,1,.286-.1186A.4073.4073,0,0,1,13.5979,11.6622Z" fill="#edf4f4"/>
      <path d="M14.8116,11.6622a.4048.4048,0,1,1,.286-.1186A.407.407,0,0,1,14.8116,11.6622Z" fill="#edf4f4"/>
      <path d="M16.0252,11.6622a.4049.4049,0,1,1,.286-.1186A.4068.4068,0,0,1,16.0252,11.6622Z" fill="#edf4f4"/>
      <path d="M17.2389,11.6622a.4049.4049,0,1,1,.286-.1186A.4066.4066,0,0,1,17.2389,11.6622Z" fill="#edf4f4"/>
      <path d="M14.0025,10.4485a.4046.4046,0,1,1,.286-.1185A.4074.4074,0,0,1,14.0025,10.4485Z" fill="#edf4f4"/>
      <path d="M15.2161,10.4485a.4048.4048,0,1,1,.286-.1185A.4078.4078,0,0,1,15.2161,10.4485Z" fill="#edf4f4"/>
      <path d="M16.43,10.4485a.4048.4048,0,1,1,.286-.1185A.4076.4076,0,0,1,16.43,10.4485Z" fill="#edf4f4"/>
      <path d="M13.5979,9.2348a.4048.4048,0,1,1,.286-.1185A.4076.4076,0,0,1,13.5979,9.2348Z" fill="#edf4f4"/>
      <path d="M14.8116,9.2348a.4046.4046,0,1,1,.286-.1185A.4081.4081,0,0,1,14.8116,9.2348Z" fill="#edf4f4"/>
      <path d="M16.0252,9.2348a.4048.4048,0,1,1,.286-.1185A.4071.4071,0,0,1,16.0252,9.2348Z" fill="#edf4f4"/>
      <path d="M17.2389,9.2348a.4048.4048,0,1,1,.286-.1185A.4069.4069,0,0,1,17.2389,9.2348Z" fill="#edf4f4"/>
      <path d="M13.5979,6.8075a.4049.4049,0,1,1,.286-.1186A.4066.4066,0,0,1,13.5979,6.8075Z" fill="#edf4f4"/>
      <path d="M14.8116,6.8075a.4048.4048,0,1,1,.286-.1186A.407.407,0,0,1,14.8116,6.8075Z" fill="#edf4f4"/>
      <path d="M16.0252,6.8075a.4049.4049,0,1,1,.286-.1186A.4068.4068,0,0,1,16.0252,6.8075Z" fill="#edf4f4"/>
      <path d="M17.2389,6.8075a.4049.4049,0,1,1,.286-.1186A.4073.4073,0,0,1,17.2389,6.8075Z" fill="#edf4f4"/>
      <path d="M14.407,8.0212a.4049.4049,0,1,1,.286-.1186A.4073.4073,0,0,1,14.407,8.0212Z" fill="#edf4f4"/>
      <path d="M15.6207,8.0212a.4048.4048,0,1,1,.286-.1186A.4073.4073,0,0,1,15.6207,8.0212Z" fill="#edf4f4"/>
      <path d="M16.8344,8.0212a.4049.4049,0,1,1,.2859-.1186A.4068.4068,0,0,1,16.8344,8.0212Z" fill="#edf4f4"/>
    </g>
  </g>
</svg>
