<svg xmlns="http://www.w3.org/2000/svg" xmlns:xlink="http://www.w3.org/1999/xlink" width="71" height="70" viewBox="0 0 71 70">
  <g style="isolation: isolate">
    <g>
      <image width="71" height="70" opacity="0.3" xlink:href="design-white1.png" style="mix-blend-mode: luminosity"/>
      <g>
        <path d="M43.548,55.6864V28.2989a.8559.8559,0,0,0-.8559-.8559H18.728a.8559.8559,0,0,0-.8559.8559V55.6864a.8559.8559,0,0,0,.8559.8559H42.6921A.8559.8559,0,0,0,43.548,55.6864Zm-8.49-.8558A5.9961,5.9961,0,0,1,40.98,49.6954h.8558v5.1352ZM26.4307,29.1547v1.7118h1.7118V29.1547h5.1351v1.7118h1.7118V29.1547h6.8468v6.8469H40.1245v1.7117h1.7117v5.1352H40.1245V44.56h1.7117v3.4235H40.98a7.7113,7.7113,0,0,0-7.6523,6.8469H31.5659V53.1188H29.8542v1.7118H28.1425v-.8559a9.4231,9.4231,0,0,0-8.5587-9.3708V37.7133h1.7118V36.0016H19.5838V29.1547ZM19.5838,46.3225a7.7111,7.7111,0,0,1,6.8469,7.6522v.8559H19.5838Z" fill="#f4f4f4"/>
        <rect x="23.0073" y="36.0016" width="1.7117" height="1.7117" fill="#f4f4f4"/>
        <rect x="26.4307" y="36.0016" width="1.7117" height="1.7117" fill="#f4f4f4"/>
        <rect x="26.4307" y="32.5782" width="1.7117" height="1.7117" fill="#f4f4f4"/>
        <rect x="36.7011" y="36.0016" width="1.7117" height="1.7117" fill="#f4f4f4"/>
        <rect x="33.2776" y="36.0016" width="1.7117" height="1.7117" fill="#f4f4f4"/>
        <rect x="33.2776" y="32.5782" width="1.7117" height="1.7117" fill="#f4f4f4"/>
        <rect x="36.7011" y="42.8485" width="1.7117" height="1.7117" fill="#f4f4f4"/>
        <rect x="33.2776" y="42.8485" width="1.7117" height="1.7117" fill="#f4f4f4"/>
        <rect x="29.8542" y="42.8485" width="1.7117" height="1.7117" fill="#f4f4f4"/>
        <rect x="29.8542" y="46.272" width="1.7117" height="1.7117" fill="#f4f4f4"/>
        <rect x="29.8542" y="49.6954" width="1.7117" height="1.7117" fill="#f4f4f4"/>
        <path d="M50.3949,55.6864V28.2989a.8559.8559,0,0,0-.8559-.8559H46.1155a.8559.8559,0,0,0-.8558.8559V55.6864a.8559.8559,0,0,0,.8558.8559H49.539A.8559.8559,0,0,0,50.3949,55.6864Zm-3.4235-.8558V29.1547h1.7117V54.8306Z" fill="#f4f4f4"/>
        <rect x="52.1066" y="27.443" width="1.7117" height="29.0993" fill="#f4f4f4"/>
        <rect x="55.53" y="27.443" width="1.7117" height="29.0993" fill="#f4f4f4"/>
        <path d="M28.9983,7.7582a.8559.8559,0,0,0-.8558-.8559H23.0073a.8559.8559,0,0,0-.8559.8559v2.981a14.3343,14.3343,0,0,0-4.1552,1.716l-2.1045-2.1046a.8559.8559,0,0,0-1.21,0L11.05,13.982a.8831.8831,0,0,0,0,1.2111l2.1054,2.1045a14.344,14.344,0,0,0-1.7169,4.1544H8.4577a.8559.8559,0,0,0-.8559.8558V27.443a.8559.8559,0,0,0,.8559.8559h2.9809a14.3423,14.3423,0,0,0,1.7169,4.1543L11.05,34.5578a.8558.8558,0,0,0-.0007,1.21l.0007.0006,3.3986,3.4V59.11a.8558.8558,0,0,0,.8558.8558H59.8093a.8558.8558,0,0,0,.8559-.8558V24.8754a.8558.8558,0,0,0-.8559-.8558h-.8558V14.6051a.8633.8633,0,0,0-.054-.3013L56.332,7.4569a.8559.8559,0,0,0-1.6039,0l-1.7657,4.71L51.1968,7.46a.8559.8559,0,0,0-1.6039,0l-2.5676,6.8469a.8651.8651,0,0,0-.0539.2987V24.02H43.548V22.3078a.8559.8559,0,0,0-.8559-.8558h-2.981a14.3465,14.3465,0,0,0-1.7168-4.1544L40.1,15.1931a.856.856,0,0,0,.0007-1.21L40.1,13.982l-3.6314-3.6314a.8559.8559,0,0,0-1.21,0l-2.1046,2.1046a14.3343,14.3343,0,0,0-4.1552-1.716ZM12.8653,35.1637l1.5834-1.5825v3.1667Zm46.0882-9.4324V58.254H16.16V25.7313ZM53.8183,24.02V15.461h3.4234V24.02Zm3.0443-10.27H54.1974L55.53,10.1957Zm-5.1352,0H49.0623l1.3326-3.5535ZM48.6831,15.461h3.4235V24.02H48.6831ZM16.2041,24.02a9.4093,9.4093,0,0,1,18.7433,0ZM27.9824,12.2712a12.6855,12.6855,0,0,1,4.8057,1.9856.8559.8559,0,0,0,1.0869-.1019l1.9882-1.989,2.4212,2.4212-1.989,1.9865a.8559.8559,0,0,0-.1019,1.0861,12.7126,12.7126,0,0,1,1.9856,4.8065.856.856,0,0,0,.84.6958h2.8166V24.02H36.6574a11.121,11.121,0,0,0-22.2087.8558v6.3788a12.7142,12.7142,0,0,1-1.4781-3.9712.8559.8559,0,0,0-.84-.6959H9.3135V23.1637H12.13a.8558.8558,0,0,0,.84-.6958,12.7126,12.7126,0,0,1,1.9856-4.8065.8559.8559,0,0,0-.1018-1.0878l-1.9891-1.9865,2.4213-2.4212,1.9864,1.989a.856.856,0,0,0,1.087.1019,12.6844,12.6844,0,0,1,4.8056-1.9856.8559.8559,0,0,0,.6958-.8405V8.6141h3.4235v2.8166A.8558.8558,0,0,0,27.9824,12.2712Z" fill="#f4f4f4"/>
      </g>
    </g>
  </g>
</svg>
