<svg xmlns="http://www.w3.org/2000/svg" xmlns:xlink="http://www.w3.org/1999/xlink" width="31.6466" height="30.5096" viewBox="0 0 31.6466 30.5096">
  <g style="isolation: isolate">
    <g>
      <path d="M29.3234,0h-27A2.33,2.33,0,0,0,0,2.3232V28.1865A2.33,2.33,0,0,0,2.3232,30.51H9.4086a7.4355,7.4355,0,0,1,12.8294,0h7.0854a2.33,2.33,0,0,0,2.3232-2.3231V2.3232A2.33,2.33,0,0,0,29.3234,0Z" fill="#a967aa"/>
      <g>
        <image width="111" height="111" transform="translate(3.13 1.4248) scale(0.24)" opacity="0.3" xlink:href="Design1.png" style="mix-blend-mode: luminosity"/>
        <g>
          <path d="M19.4229,22.6173V12.1459a.3273.3273,0,0,0-.3273-.3273H9.9331a.3272.3272,0,0,0-.3272.3273V22.6173a.3273.3273,0,0,0,.3272.3273h9.1625A.3273.3273,0,0,0,19.4229,22.6173ZM16.1767,22.29a2.2926,2.2926,0,0,1,2.2645-1.9634h.3272V22.29Zm-3.2985-9.817v.6545h.6545v-.6545h1.9634v.6545h.6544v-.6545h2.6179V15.091h-.6545v.6544h.6545v1.9634h-.6545v.6545h.6545v1.3089h-.3272A2.9484,2.9484,0,0,0,15.5154,22.29h-.6738v-.6545h-.6545V22.29h-.6544v-.3272A3.6028,3.6028,0,0,0,10.26,18.38V15.7454h.6545V15.091H10.26V12.4731ZM10.26,19.0371a2.9483,2.9483,0,0,1,2.6179,2.9258V22.29H10.26Z" fill="#edf4f4"/>
          <rect x="11.5693" y="15.091" width="0.6545" height="0.6545" fill="#edf4f4"/>
          <rect x="12.8782" y="15.091" width="0.6545" height="0.6545" fill="#edf4f4"/>
          <rect x="12.8782" y="13.782" width="0.6545" height="0.6545" fill="#edf4f4"/>
          <rect x="16.805" y="15.091" width="0.6545" height="0.6545" fill="#edf4f4"/>
          <rect x="15.4961" y="15.091" width="0.6545" height="0.6545" fill="#edf4f4"/>
          <rect x="15.4961" y="13.782" width="0.6545" height="0.6545" fill="#edf4f4"/>
          <rect x="16.805" y="17.7088" width="0.6545" height="0.6545" fill="#edf4f4"/>
          <rect x="15.4961" y="17.7088" width="0.6545" height="0.6545" fill="#edf4f4"/>
          <rect x="14.1871" y="17.7088" width="0.6545" height="0.6545" fill="#edf4f4"/>
          <rect x="14.1871" y="19.0178" width="0.6545" height="0.6545" fill="#edf4f4"/>
          <rect x="14.1871" y="20.3267" width="0.6545" height="0.6545" fill="#edf4f4"/>
          <path d="M22.0407,22.6173V12.1459a.3272.3272,0,0,0-.3272-.3273H20.4046a.3273.3273,0,0,0-.3273.3273V22.6173a.3273.3273,0,0,0,.3273.3273h1.3089A.3273.3273,0,0,0,22.0407,22.6173ZM20.7318,22.29v-9.817h.6545V22.29Z" fill="#edf4f4"/>
          <rect x="22.6952" y="11.8186" width="0.6545" height="11.1259" fill="#edf4f4"/>
          <rect x="24.0041" y="11.8186" width="0.6545" height="11.1259" fill="#edf4f4"/>
          <path d="M13.86,4.2923a.3272.3272,0,0,0-.3272-.3273H11.5693a.3273.3273,0,0,0-.3273.3273v1.14a5.4813,5.4813,0,0,0-1.5887.6561l-.8047-.8047a.3273.3273,0,0,0-.4627,0L6.9975,6.6719a.3376.3376,0,0,0,0,.463l.805.8047A5.4861,5.4861,0,0,0,7.146,9.528h-1.14a.3272.3272,0,0,0-.3272.3272v1.9634a.3273.3273,0,0,0,.3272.3273h1.14a5.4855,5.4855,0,0,0,.6565,1.5883l-.805.8047a.3272.3272,0,0,0,0,.4628l0,0,1.2994,1.3v7.6246a.3272.3272,0,0,0,.3273.3272H25.64a.3272.3272,0,0,0,.3272-.3272V10.8369A.3272.3272,0,0,0,25.64,10.51h-.3272V6.91a.3309.3309,0,0,0-.0207-.1152l-.9817-2.6178a.3272.3272,0,0,0-.6132,0l-.6751,1.8007-.6751-1.8a.3272.3272,0,0,0-.6132,0l-.9817,2.6178a.33.33,0,0,0-.0206.1142v3.6H19.4229V9.8552a.3272.3272,0,0,0-.3273-.3272h-1.14A5.4833,5.4833,0,0,0,17.2994,7.94l.805-.8047a.3271.3271,0,0,0,0-.4627l0,0L16.716,5.2834a.3273.3273,0,0,0-.4627,0l-.8047.8047A5.4813,5.4813,0,0,0,13.86,5.432ZM7.6915,14.7706l.6054-.6051v1.2108Zm17.6216-3.6064V23.599H8.9514V11.1642ZM23.35,10.51V7.2374h1.3089V10.51Zm1.1639-3.9268h-1.019l.51-1.3587Zm-1.9634,0h-1.019l.51-1.3587Zm-1.1639.6545h1.3089V10.51H21.3863ZM8.9681,10.51a3.5976,3.5976,0,0,1,7.1664,0Zm4.5034-4.4919a4.8509,4.8509,0,0,1,1.8374.7591.3272.3272,0,0,0,.4156-.0389l.76-.7605.9258.9258-.7605.76a.3271.3271,0,0,0-.039.4152A4.86,4.86,0,0,1,17.37,9.9158a.3273.3273,0,0,0,.3214.266h1.0769V10.51h-1.98a4.2521,4.2521,0,0,0-8.4914.3272v2.4389a4.8607,4.8607,0,0,1-.5651-1.5184.3272.3272,0,0,0-.3213-.266H6.3335V10.1825h1.077a.3274.3274,0,0,0,.3213-.2661A4.86,4.86,0,0,1,8.491,8.0787a.3272.3272,0,0,0-.039-.4159l-.7605-.76.9258-.9258.7595.7605a.3272.3272,0,0,0,.4156.0389A4.8509,4.8509,0,0,1,11.63,6.0178a.3272.3272,0,0,0,.266-.3214V4.62h1.309V5.6964A.3273.3273,0,0,0,13.4715,6.0178Z" fill="#edf4f4"/>
        </g>
      </g>
    </g>
  </g>
</svg>
