<svg xmlns="http://www.w3.org/2000/svg" width="47.668" height="47.6679" viewBox="0 0 47.668 47.6679">
  <g>
    <path d="M27.1856,2.2344a2.2345,2.2345,0,1,0-2.2344,2.2345A2.2344,2.2344,0,0,0,27.1856,2.2344Zm-2.2344.7448a.7448.7448,0,1,1,.7448-.7448A.7447.7447,0,0,1,24.9512,2.9792Z" fill="#f4f4f4"/>
    <path d="M43.1991,25.3236a2.2344,2.2344,0,1,0,2.2344-2.2344A2.2344,2.2344,0,0,0,43.1991,25.3236Zm2.9792,0a.7448.7448,0,1,1-.7448-.7448A.7449.7449,0,0,1,46.1783,25.3236Z" fill="#f4f4f4"/>
    <path d="M8.5653,23.834A2.2345,2.2345,0,1,0,10.8,21.6,2.2345,2.2345,0,0,0,8.5653,23.834Zm2.9793,0a.7448.7448,0,1,1-.7448-.7448A.7449.7449,0,0,1,11.5446,23.834Z" fill="#f4f4f4"/>
    <path d="M21.5586,7.91a.7449.7449,0,0,0-.6-.5065l-6.5581-.9645L11.4664.4171a.7449.7449,0,0,0-1.337,0L7.1949,6.4389.6368,7.4034A.7364.7364,0,0,0,.22,8.6547l4.7519,4.7072L3.8544,19.987a.7449.7449,0,0,0,1.0837.7821L10.8,17.6446l5.8616,3.1245a.7713.7713,0,0,0,.35.0856.7487.7487,0,0,0,.7336-.8863l-1.1172-6.6251,4.7482-4.67A.7448.7448,0,0,0,21.5586,7.91ZM10.8,11.1722a.7449.7449,0,1,1,.7448-.7448A.7448.7448,0,0,1,10.8,11.1722Z" fill="#f4f4f4"/>
    <path d="M8.1594,47.6679a6.7664,6.7664,0,0,0,6.6772-6.8373,5.56,5.56,0,0,0-5.4929-5.6159,4.5993,4.5993,0,0,0-4.54,4.6327,3.8283,3.8283,0,0,0,3.78,3.873.7448.7448,0,1,0,0-1.49,2.3349,2.3349,0,0,1-2.29-2.3787v-.0047a3.1059,3.1059,0,0,1,3.05-3.1543,4.07,4.07,0,0,1,4,4.1263,5.2732,5.2732,0,0,1-5.1839,5.3589,6.77,6.77,0,0,1-6.67-6.8709,8.6613,8.6613,0,0,1,8.5244-8.77,11.0134,11.0134,0,0,1,10.8407,11.15.7448.7448,0,0,0,1.49,0,12.5047,12.5047,0,0,0-12.33-12.64A10.15,10.15,0,0,0,0,39.3074,8.2712,8.2712,0,0,0,8.1594,47.6679Z" fill="#f4f4f4"/>
    <path d="M38.6259,29.42a.7447.7447,0,0,0-1.2922,0l-8.9378,15.641a.7449.7449,0,0,0,.6517,1.1172H46.9231a.7448.7448,0,0,0,.7448-.7448.7215.7215,0,0,0-.1527-.4506Zm0,7.0757-1.49,2.6068a.7458.7458,0,0,1-1.2923-.7448l1.49-2.6069a.7458.7458,0,1,1,1.2922.7449Z" fill="#f4f4f4"/>
    <path d="M29.42,26.0684A3.3517,3.3517,0,1,0,26.0684,29.42,3.3517,3.3517,0,0,0,29.42,26.0684ZM26.0684,27.93a1.862,1.862,0,1,1,1.862-1.862A1.8619,1.8619,0,0,1,26.0684,27.93Z" fill="#f4f4f4"/>
    <path d="M32.377,26.4967v-.5028a.7449.7449,0,0,0-1.49,0v.391a.745.745,0,0,0,.6851.8l.0076.0005h.0745A.7449.7449,0,0,0,32.377,26.4967Z" fill="#f4f4f4"/>
    <path d="M31.1219,24.6011a.7449.7449,0,0,0,.6667-1.08c-.0634-.1266-.1341-.2532-.2049-.3724a.7448.7448,0,1,0-1.3118.7058c.0106.02.0221.039.0345.0577q.0819.134.1527.2793A.7447.7447,0,0,0,31.1219,24.6011Z" fill="#f4f4f4"/>
    <path d="M24.2548,20.3557q-.2049.0558-.4022.1266a.7448.7448,0,0,0,.4479,1.4207q.024-.0075.0474-.0167l.3091-.0968a.7448.7448,0,0,0-.4022-1.4338Z" fill="#f4f4f4"/>
    <path d="M27.1558,20.1993q-.2047-.0336-.4171-.0559a.7485.7485,0,1,0-.1489,1.49l.324.041h.1229a.7472.7472,0,1,0,.1191-1.49Z" fill="#f4f4f4"/>
    <path d="M30.3548,29.4834A.7449.7449,0,0,0,31.39,29.29q.1191-.1751.2271-.3724a.7448.7448,0,1,0-1.2571-.7991q-.0168.0264-.0314.0543-.0819.1379-.1713.2681a.7449.7449,0,0,0,.1881,1.0364Z" fill="#f4f4f4"/>
    <path d="M29.86,21.2979c-.1155-.0819-.2309-.16-.3538-.2309a.7469.7469,0,1,0-.7746,1.2773q.1378.0856.2681.1751a.7455.7455,0,0,0,.86-1.2178h0Z" fill="#f4f4f4"/>
    <path d="M22.4561,23.0892q.1116-.1155.2309-.2235a.7491.7491,0,0,0-.9981-1.1172h0c-.1043.0931-.2048.19-.3016.2942a.7479.7479,0,0,0,1.0688,1.0465Z" fill="#f4f4f4"/>
    <path d="M24.8655,31.2113a.7448.7448,0,0,0-.4642-.9455l-.0013,0q-.1564-.0521-.3054-.1154a.7448.7448,0,0,0-.566,1.3779q.1936.0781.391.1489a.7448.7448,0,0,0,.9455-.4642Z" fill="#f4f4f4"/>
    <path d="M21.4357,30.1351a.7452.7452,0,0,0,1.0576-1.05q-.1118-.1155-.216-.2346a.7448.7448,0,0,0-1.1172.9719A4.0029,4.0029,0,0,0,21.4357,30.1351Z" fill="#f4f4f4"/>
    <path d="M26.6494,30.5038l-.324.026a.745.745,0,1,0,.0372,1.49H26.4a2.6172,2.6172,0,0,0,.4171-.0335.7493.7493,0,1,0-.1638-1.49Z" fill="#f4f4f4"/>
    <path d="M28.85,31.3342a.7446.7446,0,0,0,.3538-.0894q.1861-.1005.3724-.2122a.7448.7448,0,0,0-.79-1.2625q-.1341.0857-.2793.1639a.7448.7448,0,0,0,.3537,1.4Z" fill="#f4f4f4"/>
    <path d="M19.9423,27.5878a.7448.7448,0,0,0,1.4444-.3644l-.0106-.0378q-.041-.1527-.0745-.3091a.7448.7448,0,0,0-1.4714.2325q.0047.0292.0116.058Q19.8828,27.3793,19.9423,27.5878Z" fill="#f4f4f4"/>
    <path d="M20.9962,23.752a.7448.7448,0,0,0-.9459.4544q-.0707.201-.1266.41a.7448.7448,0,1,0,1.4079.4866.7368.7368,0,0,0,.03-.1142q.0409-.1527.0931-.3016A.7449.7449,0,0,0,20.9962,23.752Z" fill="#f4f4f4"/>
    <path d="M37.9854,1.49a9.6826,9.6826,0,1,0,9.6825,9.6826A9.6826,9.6826,0,0,0,37.9854,1.49Zm0,5.5861A3.7241,3.7241,0,0,0,34.2613,10.8a.7448.7448,0,1,1-1.49,0,5.2136,5.2136,0,0,1,5.2137-5.2137.7448.7448,0,0,1,0,1.49Z" fill="#f4f4f4"/>
  </g>
</svg>
