<svg xmlns="http://www.w3.org/2000/svg" width="28.176" height="33" viewBox="0 0 28.176 33">
  <g opacity="0.5">
    <path d="M25.8452,21.186l-.429-.429a5.5,5.5,0,0,1-1.595-3.465l-.484-6.358a9.24,9.24,0,0,0-8.129-8.657V1.1a1.1,1.1,0,0,0-2.2,0V2.277a9.2291,9.2291,0,0,0-8.129,8.635l-.484,6.38A5.5,5.5,0,0,1,2.8,20.757l-.429.429a4.95,4.95,0,0,0-1.463,3.52V25.3a3.3,3.3,0,0,0,3.3,3.3h5.5a4.4,4.4,0,0,0,8.8,0h5.5a3.3,3.3,0,0,0,3.3-3.3v-.594A4.95,4.95,0,0,0,25.8452,21.186ZM14.1082,30.8a2.2,2.2,0,0,1-2.2-2.2h4.4A2.2,2.2,0,0,1,14.1082,30.8Zm11-5.5a1.1,1.1,0,0,1-1.1,1.1h-19.8a1.1,1.1,0,0,1-1.1-1.1v-.594a2.772,2.772,0,0,1,.814-1.969l.429-.429a7.7,7.7,0,0,0,2.2-4.862L7.0792,11a7.04,7.04,0,0,1,14.058,0l.484,6.38a7.7,7.7,0,0,0,2.2,4.862l.429.429a2.7715,2.7715,0,0,1,.858,2.035Z" fill="#fff"/>
    <path d="M1.1172,9.9H.9082A1.1,1.1,0,0,1,.0171,8.6249V8.624a13.0569,13.0569,0,0,1,2.805-6.028,1.1014,1.1014,0,0,1,1.694,1.408h0a10.8685,10.8685,0,0,0-2.321,4.983A1.1,1.1,0,0,1,1.1172,9.9Z" fill="#fff"/>
    <path d="M27.0992,9.9a1.1,1.1,0,0,1-1.1-.902,10.8674,10.8674,0,0,0-2.332-4.994,1.1,1.1,0,0,1,1.694-1.397,13.0785,13.0785,0,0,1,2.794,6.006,1.1,1.1,0,0,1-.847,1.287Z" fill="#fff"/>
  </g>
</svg>
