<svg xmlns="http://www.w3.org/2000/svg" width="30.8691" height="29.7601" viewBox="0 0 30.8691 29.7601">
  <g>
    <path d="M28.603,0H2.2661A2.2727,2.2727,0,0,0,0,2.2661V27.494A2.2728,2.2728,0,0,0,2.2661,29.76H9.1775a7.2527,7.2527,0,0,1,12.5141,0H28.603a2.2728,2.2728,0,0,0,2.2661-2.2661V2.2661A2.2728,2.2728,0,0,0,28.603,0Z" fill="#a967aa"/>
    <g>
      <path d="M16.716,5.6544a.8543.8543,0,1,0-.8543.8544A.8543.8543,0,0,0,16.716,5.6544Zm-.8543.2848a.2848.2848,0,1,1,.2848-.2848A.2848.2848,0,0,1,15.8617,5.9392Z" fill="#edf4f4"/>
      <path d="M22.8387,14.4824a.8543.8543,0,1,0,.8543-.8543A.8543.8543,0,0,0,22.8387,14.4824Zm1.1391,0a.2848.2848,0,1,1-.2848-.2847A.2848.2848,0,0,1,23.9778,14.4824Z" fill="#edf4f4"/>
      <path d="M9.5967,13.9129a.8543.8543,0,1,0,.8543-.8543A.8543.8543,0,0,0,9.5967,13.9129Zm1.1391,0a.2848.2848,0,1,1-.2848-.2848A.2848.2848,0,0,1,10.7358,13.9129Z" fill="#edf4f4"/>
      <path d="M14.5645,7.8244a.2847.2847,0,0,0-.2292-.1936L11.8279,7.262,10.7059,4.96a.2848.2848,0,0,0-.5112,0L9.0727,7.262l-2.5075.3688a.2815.2815,0,0,0-.1594.4784l1.8168,1.8-.4271,2.533a.2847.2847,0,0,0,.4143.299l2.2412-1.1946,2.2412,1.1946a.2939.2939,0,0,0,.1338.0328.2863.2863,0,0,0,.2805-.3389l-.4272-2.5331,1.8155-1.7855A.2846.2846,0,0,0,14.5645,7.8244ZM10.451,9.0717a.2848.2848,0,1,1,.2848-.2847A.2848.2848,0,0,1,10.451,9.0717Z" fill="#edf4f4"/>
      <path d="M9.4415,23.0257a2.5872,2.5872,0,0,0,2.553-2.6143,2.1259,2.1259,0,0,0-2.1-2.1472,1.7585,1.7585,0,0,0-1.7357,1.7713,1.4638,1.4638,0,0,0,1.4452,1.4809.2848.2848,0,0,0,0-.57.8927.8927,0,0,1-.8757-.91v-.0018A1.1875,1.1875,0,0,1,9.8943,18.83a1.5563,1.5563,0,0,1,1.5292,1.5777,2.0162,2.0162,0,0,1-1.982,2.0489,2.5886,2.5886,0,0,1-2.55-2.627,3.3116,3.3116,0,0,1,3.2592-3.3532,4.2109,4.2109,0,0,1,4.1449,4.263.2848.2848,0,1,0,.57,0,4.7811,4.7811,0,0,0-4.7145-4.8326,3.8808,3.8808,0,0,0-3.8287,3.9228A3.1624,3.1624,0,0,0,9.4415,23.0257Z" fill="#edf4f4"/>
      <path d="M21.09,16.0487a.2846.2846,0,0,0-.494,0l-3.4173,5.98a.2847.2847,0,0,0,.2491.4272h6.8346a.2848.2848,0,0,0,.2848-.2848.2759.2759,0,0,0-.0584-.1723Zm0,2.7053-.5695.9968a.2852.2852,0,0,1-.4941-.2848l.57-.9967a.2851.2851,0,1,1,.494.2847Z" fill="#edf4f4"/>
      <path d="M17.57,14.7672a1.2815,1.2815,0,1,0-1.2814,1.2815A1.2815,1.2815,0,0,0,17.57,14.7672Zm-1.2814.7119a.7119.7119,0,1,1,.7119-.7119A.7119.7119,0,0,1,16.2889,15.4791Z" fill="#edf4f4"/>
      <path d="M18.7009,14.931v-.1923a.2848.2848,0,0,0-.57,0v.1495a.285.285,0,0,0,.262.306l.0029,0h.0285A.2848.2848,0,0,0,18.7009,14.931Z" fill="#edf4f4"/>
      <path d="M18.221,14.2062a.2847.2847,0,0,0,.2549-.4129c-.0242-.0484-.0512-.0968-.0783-.1424a.2848.2848,0,1,0-.5016.27l.0132.0221q.0314.0513.0584.1068A.2848.2848,0,0,0,18.221,14.2062Z" fill="#edf4f4"/>
      <path d="M15.5954,12.583q-.0783.0213-.1538.0484a.2848.2848,0,0,0,.1713.5432l.0181-.0064.1182-.037a.2848.2848,0,0,0-.1538-.5482Z" fill="#edf4f4"/>
      <path d="M16.7046,12.5232q-.0783-.0129-.1595-.0214a.2862.2862,0,0,0-.0569.57l.1239.0156h.047a.2857.2857,0,1,0,.0455-.5695Z" fill="#edf4f4"/>
      <path d="M17.9277,16.0729a.2849.2849,0,0,0,.3959-.074q.0455-.0671.0868-.1424a.2848.2848,0,1,0-.4806-.3056l-.012.0208q-.0314.0526-.0655.1025a.2848.2848,0,0,0,.0719.3963Z" fill="#edf4f4"/>
      <path d="M17.7384,12.9432c-.0442-.0313-.0883-.0612-.1353-.0883a.2856.2856,0,0,0-.2962.4884q.0526.0328.1025.067a.2851.2851,0,0,0,.329-.4656h0Z" fill="#edf4f4"/>
      <path d="M14.9077,13.6281q.0427-.0441.0883-.0854a.2864.2864,0,1,0-.3816-.4272h0c-.04.0356-.0783.0726-.1154.1125a.286.286,0,1,0,.4087.4Z" fill="#edf4f4"/>
      <path d="M15.8289,16.7336a.2846.2846,0,0,0-.1775-.3615l0,0q-.06-.02-.1168-.0441a.2848.2848,0,1,0-.2164.5268q.074.03.1495.057a.2848.2848,0,0,0,.3615-.1776Z" fill="#edf4f4"/>
      <path d="M14.5176,16.3221a.2849.2849,0,1,0,.4043-.4016c-.0284-.0294-.056-.0593-.0825-.09a.2848.2848,0,0,0-.4272.3717A1.532,1.532,0,0,0,14.5176,16.3221Z" fill="#edf4f4"/>
      <path d="M16.511,16.463l-.1239.01a.2849.2849,0,1,0,.0142.57h.0143a.9983.9983,0,0,0,.1595-.0129.2865.2865,0,1,0-.0627-.5695Z" fill="#edf4f4"/>
      <path d="M17.3525,16.7806a.2855.2855,0,0,0,.1353-.0342q.0711-.0384.1423-.0812a.2848.2848,0,0,0-.3018-.4827q-.0513.0328-.1068.0627a.2848.2848,0,0,0,.1353.5354Z" fill="#edf4f4"/>
      <path d="M13.9466,15.3481a.2847.2847,0,1,0,.5522-.1393l-.004-.0144c-.0105-.039-.02-.0783-.0285-.1182a.2848.2848,0,0,0-.5626.0889l.0044.0221Q13.9239,15.2685,13.9466,15.3481Z" fill="#edf4f4"/>
      <path d="M14.35,13.8816a.2847.2847,0,0,0-.3616.1737q-.0272.0768-.0484.1566a.2848.2848,0,0,0,.5383.1861.2892.2892,0,0,0,.0113-.0437q.0156-.0583.0356-.1153A.2847.2847,0,0,0,14.35,13.8816Z" fill="#edf4f4"/>
      <path d="M20.8452,5.37a3.7021,3.7021,0,1,0,3.7021,3.702A3.7019,3.7019,0,0,0,20.8452,5.37Zm0,2.1358a1.4239,1.4239,0,0,0-1.4238,1.4238.2848.2848,0,0,1-.57,0,1.9934,1.9934,0,0,1,1.9934-1.9934.2848.2848,0,0,1,0,.57Z" fill="#edf4f4"/>
    </g>
  </g>
</svg>
