<svg xmlns="http://www.w3.org/2000/svg" xmlns:xlink="http://www.w3.org/1999/xlink" width="31.6466" height="30.5096" viewBox="0 0 31.6466 30.5096">
  <g style="isolation: isolate">
    <g>
      <path d="M29.3234,0h-27A2.33,2.33,0,0,0,0,2.3232V28.1865A2.33,2.33,0,0,0,2.3232,30.51H9.4086a7.4355,7.4355,0,0,1,12.8294,0h7.0854a2.33,2.33,0,0,0,2.3232-2.3231V2.3232A2.33,2.33,0,0,0,29.3234,0Z" fill="#a967aa"/>
      <g>
        <image width="111" height="102" transform="translate(3.0331 2.4991) scale(0.24)" opacity="0.3" xlink:href="Programming1.png" style="mix-blend-mode: luminosity"/>
        <g>
          <path d="M25.6,5.5821a1.0017,1.0017,0,0,0-.7471-.3472H6.7941a1.0021,1.0021,0,0,0-.7472.3472,1.2633,1.2633,0,0,0-.3094.8383V22.0588a1.2633,1.2633,0,0,0,.3094.8383,1.0024,1.0024,0,0,0,.7472.3472H24.8525a1.002,1.002,0,0,0,.7471-.3472,1.2629,1.2629,0,0,0,.3095-.8383V6.42A1.2629,1.2629,0,0,0,25.6,5.5821ZM23.5409,6.883a.7485.7485,0,0,1,.7016.7873.7062.7062,0,1,1-1.4031,0A.7485.7485,0,0,1,23.5409,6.883Zm-2.28,0a.7485.7485,0,0,1,.7016.7873.7062.7062,0,1,1-1.4031,0A.7484.7484,0,0,1,21.2607,6.883Zm-2.28,0a.7485.7485,0,0,1,.7015.7873.7062.7062,0,1,1-1.4031,0A.7485.7485,0,0,1,18.9806,6.883Zm5.8322,15.1312H6.8338V10.1055h17.979Z" fill="#edf4f4"/>
          <path d="M14.4667,19.3071a.519.519,0,0,0,.1663.1111.4754.4754,0,0,0,.1581.0357.4682.4682,0,0,0,.1606-.02.5018.5018,0,0,0,.1476-.0733.5653.5653,0,0,0,.159-.179.6476.6476,0,0,0,.0314-.0636l.013-.0333L17.32,13.4765a.68.68,0,0,0,.0206-.0688.6612.6612,0,0,0,.0175-.144.65.65,0,0,0-.0328-.2136.6008.6008,0,0,0-.1217-.2125.54.54,0,0,0-.13-.1069.4938.4938,0,0,0-.1531-.0572.4821.4821,0,0,0-.0643-.0077h0l-.0325-.0005-.0325.0016a.4972.4972,0,0,0-.0956.0186.5315.5315,0,0,0-.2882.2222.6218.6218,0,0,0-.05.0937l-.0129.0333-2.0171,5.6086a.652.652,0,0,0-.0206.069.6677.6677,0,0,0-.0172.18.6578.6578,0,0,0,.0446.211A.5954.5954,0,0,0,14.4667,19.3071Z" fill="#edf4f4"/>
          <path d="M10.2128,16.424a.61.61,0,0,0,.0421.0534l2.5,2.8043a.539.539,0,0,0,.0486.0482.5179.5179,0,0,0,.141.088.4768.4768,0,0,0,.1906.0367.4819.4819,0,0,0,.1592-.03.5117.5117,0,0,0,.1432-.0833.5707.5707,0,0,0,.1325-.158.6327.6327,0,0,0,.0726-.2012.66.66,0,0,0,.0075-.1808.6421.6421,0,0,0-.0716-.24.6188.6188,0,0,0-.0365-.06l-.0208-.0278-.0222-.0265L11.3712,16.06l2.1273-2.3868a.56.56,0,0,0,.043-.0545.6174.6174,0,0,0,.0887-.1926.6573.6573,0,0,0-.0161-.3922.6006.6006,0,0,0-.1043-.1826.5356.5356,0,0,0-.1273-.1114.49.49,0,0,0-.2156-.0729l-.0323-.0016-.0324.0005a.468.468,0,0,0-.0644.0079.5.5,0,0,0-.2088.0948.5652.5652,0,0,0-.051.0446l-.0236.0252-2.5,2.8042a.5819.5819,0,0,0-.0938.1431.6551.6551,0,0,0-.0139.5166A.6092.6092,0,0,0,10.2128,16.424Z" fill="#edf4f4"/>
          <path d="M18.1051,18.5011a.6183.6183,0,0,0-.0785.1582.6591.6591,0,0,0-.0054.3925.6108.6108,0,0,0,.0742.1609.5489.5489,0,0,0,.1687.1672.4879.4879,0,0,0,.1833.0691.473.473,0,0,0,.1614-.0028.5.5,0,0,0,.2088-.095.5218.5218,0,0,0,.051-.0446l.0236-.0249,2.5-2.8043a.5914.5914,0,0,0,.0938-.1432.6548.6548,0,0,0,.0139-.5165.6216.6216,0,0,0-.0656-.122.6072.6072,0,0,0-.0421-.0532l-2.5-2.8042-.0236-.0252a.5652.5652,0,0,0-.051-.0446.5.5,0,0,0-.1769-.0875.4406.4406,0,0,0-.064-.0123l-.0323-.0029h0l-.0324-.0005a.4826.4826,0,0,0-.0646.0055.4929.4929,0,0,0-.1833.069.5474.5474,0,0,0-.1489.1387.6134.6134,0,0,0-.094.1895.66.66,0,0,0-.0049.358.6309.6309,0,0,0,.07.1632.5776.5776,0,0,0,.04.0575l.0222.0264L20.2754,16.06l-2.1273,2.3869A.61.61,0,0,0,18.1051,18.5011Z" fill="#edf4f4"/>
        </g>
      </g>
    </g>
  </g>
</svg>
