<svg xmlns="http://www.w3.org/2000/svg" width="13.3975" height="12.8247" viewBox="0 0 13.3975 12.8247">
  <path d="M10.2129.791a5.8269,5.8269,0,0,1,3.1846,5.314,5.6789,5.6789,0,0,1-.3565,2.1211A2.9719,2.9719,0,0,1,12.04,9.5767a2.5223,2.5223,0,0,1-1.5117.4619A2.22,2.22,0,0,1,9.3242,9.731a1.7582,1.7582,0,0,1-.7148-.91,2.6084,2.6084,0,0,1-2.3936,1.2178,3.1041,3.1041,0,0,1-1.6377-.4473A3.155,3.155,0,0,1,3.4092,8.3384a3.8653,3.8653,0,0,1-.4278-1.8418,3.8365,3.8365,0,0,1,.4278-1.8272A3.1738,3.1738,0,0,1,4.5713,3.4165a3.1023,3.1023,0,0,1,1.6445-.4473,2.6524,2.6524,0,0,1,2.1563.9239V3.0669h1.9033V7.603q0,.8965.6728.8955a.8431.8431,0,0,0,.7627-.5879,4.4232,4.4232,0,0,0,.2725-1.7773,4.762,4.762,0,0,0-.65-2.499A4.4816,4.4816,0,0,0,9.499,1.94,5.8645,5.8645,0,0,0,6.7754,1.33a5.5619,5.5619,0,0,0-2.7227.6513A4.6311,4.6311,0,0,0,2.2188,3.7808a5.1923,5.1923,0,0,0-.6514,2.6045,5.32,5.32,0,0,0,.6445,2.6386A4.5853,4.5853,0,0,0,4.0244,10.83,5.4406,5.4406,0,0,0,6.72,11.481a6.128,6.128,0,0,0,2.7578-.6163l.4483,1.2881a5.83,5.83,0,0,1-1.4912.4971,8.6187,8.6187,0,0,1-1.7149.1748,7.2091,7.2091,0,0,1-3.5136-.833A5.9482,5.9482,0,0,1,.84,9.689,6.5451,6.5451,0,0,1,0,6.3853,6.3958,6.3958,0,0,1,.8467,3.1089,5.9507,5.9507,0,0,1,3.2334.8262,7.38,7.38,0,0,1,6.7754,0,7.2914,7.2914,0,0,1,10.2129.791ZM7.91,7.9175a1.9684,1.9684,0,0,0,.4892-1.4209A1.9252,1.9252,0,0,0,7.91,5.0972a1.6824,1.6824,0,0,0-1.2608-.5039,1.64,1.64,0,0,0-1.26.5107,1.9623,1.9623,0,0,0-.4755,1.3926A2.008,2.008,0,0,0,5.39,7.9106a1.6287,1.6287,0,0,0,1.26.5186A1.6706,1.6706,0,0,0,7.91,7.9175Z" fill="#cbcad0"/>
</svg>
