<svg xmlns="http://www.w3.org/2000/svg" xmlns:xlink="http://www.w3.org/1999/xlink" width="58" height="63" viewBox="0 0 58 63">
  <g style="isolation: isolate">
    <g>
      <image width="58" height="63" opacity="0.3" xlink:href="writing-white1.png" style="mix-blend-mode: luminosity"/>
      <g>
        <path d="M18.828,10.5431H39.1543a.8467.8467,0,0,0,0-1.693H18.828a.8467.8467,0,0,0,0,1.693Z" fill="#f4f4f4"/>
        <path d="M15.9242,14.7758h23.23a.8467.8467,0,0,0,0-1.6931h-23.23a.8467.8467,0,0,0,0,1.6931Z" fill="#f4f4f4"/>
        <path d="M15.9242,18.1619h23.23a.8467.8467,0,0,0,0-1.693h-23.23a.8467.8467,0,0,0,0,1.693Z" fill="#f4f4f4"/>
        <path d="M15.9242,21.548h23.23a.8467.8467,0,0,0,0-1.693h-23.23a.8467.8467,0,0,0,0,1.693Z" fill="#f4f4f4"/>
        <path d="M10.9464,42.7113a2.54,2.54,0,1,0,2.4889,2.54A2.5178,2.5178,0,0,0,10.9464,42.7113Zm0,3.3862a.8467.8467,0,1,1,.83-.8466A.8391.8391,0,0,1,10.9464,46.0975Z" fill="#f4f4f4"/>
        <path d="M17.5835,42.7113a2.54,2.54,0,1,0,2.489,2.54A2.5178,2.5178,0,0,0,17.5835,42.7113Zm0,3.3862a.8467.8467,0,1,1,.83-.8466A.8391.8391,0,0,1,17.5835,46.0975Z" fill="#f4f4f4"/>
        <path d="M24.2207,42.7113a2.54,2.54,0,1,0,2.4889,2.54A2.5178,2.5178,0,0,0,24.2207,42.7113Zm0,3.3862a.8467.8467,0,1,1,.83-.8466A.8391.8391,0,0,1,24.2207,46.0975Z" fill="#f4f4f4"/>
        <path d="M30.8578,42.7113a2.54,2.54,0,1,0,2.489,2.54A2.5178,2.5178,0,0,0,30.8578,42.7113Zm0,3.3862a.8467.8467,0,1,1,.83-.8466A.8391.8391,0,0,1,30.8578,46.0975Z" fill="#f4f4f4"/>
        <path d="M37.495,42.7113a2.54,2.54,0,1,0,2.4889,2.54A2.5178,2.5178,0,0,0,37.495,42.7113Zm0,3.3862a.8467.8467,0,1,1,.83-.8466A.8391.8391,0,0,1,37.495,46.0975Z" fill="#f4f4f4"/>
        <path d="M44.1321,42.7113a2.54,2.54,0,1,0,2.489,2.54A2.5178,2.5178,0,0,0,44.1321,42.7113Zm0,3.3862a.8467.8467,0,1,1,.83-.8466A.8391.8391,0,0,1,44.1321,46.0975Z" fill="#f4f4f4"/>
        <path d="M10.9464,48.637a2.54,2.54,0,1,0,2.4889,2.54A2.5178,2.5178,0,0,0,10.9464,48.637Zm0,3.3862a.8467.8467,0,1,1,.83-.8466A.8391.8391,0,0,1,10.9464,52.0232Z" fill="#f4f4f4"/>
        <path d="M17.5835,48.637a2.54,2.54,0,1,0,2.489,2.54A2.5178,2.5178,0,0,0,17.5835,48.637Zm0,3.3862a.8467.8467,0,1,1,.83-.8466A.8391.8391,0,0,1,17.5835,52.0232Z" fill="#f4f4f4"/>
        <path d="M24.2207,48.637a2.54,2.54,0,1,0,2.4889,2.54A2.5178,2.5178,0,0,0,24.2207,48.637Zm0,3.3862a.8467.8467,0,1,1,.83-.8466A.8391.8391,0,0,1,24.2207,52.0232Z" fill="#f4f4f4"/>
        <path d="M30.8578,48.637a2.54,2.54,0,1,0,2.489,2.54A2.5178,2.5178,0,0,0,30.8578,48.637Zm0,3.3862a.8467.8467,0,1,1,.83-.8466A.8391.8391,0,0,1,30.8578,52.0232Z" fill="#f4f4f4"/>
        <path d="M37.495,48.637a2.54,2.54,0,1,0,2.4889,2.54A2.5178,2.5178,0,0,0,37.495,48.637Zm0,3.3862a.8467.8467,0,1,1,.83-.8466A.8391.8391,0,0,1,37.495,52.0232Z" fill="#f4f4f4"/>
        <path d="M44.1321,48.637a2.54,2.54,0,1,0,2.489,2.54A2.5178,2.5178,0,0,0,44.1321,48.637Zm0,3.3862a.8467.8467,0,1,1,.83-.8466A.8391.8391,0,0,1,44.1321,52.0232Z" fill="#f4f4f4"/>
        <path d="M49.94,24.0876v-1.693a4.1959,4.1959,0,0,0-4.1482-4.2327V13.0827H48.28a.8385.8385,0,0,0,.83-.8465V5.4639a2.5177,2.5177,0,0,0-2.4889-2.5395H11.776a2.5177,2.5177,0,0,0-2.4889,2.54v12.698a4.1958,4.1958,0,0,0-4.1482,4.2327v1.693a2.5178,2.5178,0,0,0-2.489,2.54v.8466a2.5178,2.5178,0,0,0,2.489,2.54V53.7162a3.3562,3.3562,0,0,0,3.3185,3.3862H46.6211A3.3562,3.3562,0,0,0,49.94,53.7162V30.0134a2.5178,2.5178,0,0,0,2.489-2.54v-.8466A2.5178,2.5178,0,0,0,49.94,24.0876ZM48.28,22.3946v1.693h-2.489V19.855A2.5172,2.5172,0,0,1,48.28,22.3946Zm-.83-11.0049H45.7914V5.4639a.83.83,0,1,1,1.6593,0ZM10.9464,5.4639a.84.84,0,0,1,.83-.8465H44.2848a2.5613,2.5613,0,0,0-.1527.8465V24.0876H10.9464ZM9.2871,19.855v4.2326H6.7981v-1.693A2.5172,2.5172,0,0,1,9.2871,19.855Zm9.998,10.1584a8.2807,8.2807,0,0,0,16.5083,0H48.28v6.7722a2.5177,2.5177,0,0,1-2.489,2.54H9.2871a2.5177,2.5177,0,0,1-2.489-2.54V30.0134Zm3.351,0a4.9563,4.9563,0,0,0,9.8063,0h1.6768a6.6161,6.6161,0,0,1-13.16,0Zm1.7024,0H30.74a3.2868,3.2868,0,0,1-6.4015,0ZM46.6211,55.4093H8.4574a1.6781,1.6781,0,0,1-1.6593-1.6931V40.1506a4.0579,4.0579,0,0,0,2.489.8677H45.7914a4.0579,4.0579,0,0,0,2.489-.8677V53.7162A1.6781,1.6781,0,0,1,46.6211,55.4093Zm4.1482-27.9355a.84.84,0,0,1-.83.8465H5.1389a.84.84,0,0,1-.83-.8465v-.8466a.84.84,0,0,1,.83-.8465H49.94a.84.84,0,0,1,.83.8465Z" fill="#f4f4f4"/>
      </g>
    </g>
  </g>
</svg>
