<svg xmlns="http://www.w3.org/2000/svg" xmlns:xlink="http://www.w3.org/1999/xlink" width="30.8691" height="30.3658" viewBox="0 0 30.8691 30.3658">
  <g style="isolation: isolate">
    <g>
      <path d="M28.603,0H2.2661A2.2962,2.2962,0,0,0,0,2.3122V28.0536a2.2962,2.2962,0,0,0,2.2661,2.3122H9.1775a7.18,7.18,0,0,1,12.5141,0H28.603a2.2963,2.2963,0,0,0,2.2661-2.3122V2.3122A2.2963,2.2963,0,0,0,28.603,0Z" fill="#a967aa"/>
      <g>
        <image width="93" height="100" transform="translate(4.7844 2.6889) scale(0.24)" opacity="0.3" xlink:href="Writing1.png" style="mix-blend-mode: luminosity"/>
        <g>
          <path d="M12.1038,6.7282h7.7717a.3238.3238,0,0,0,0-.6474H12.1038a.3238.3238,0,0,0,0,.6474Z" fill="#edf4f4"/>
          <path d="M10.9936,8.3465h8.8819a.3237.3237,0,0,0,0-.6473H10.9936a.3237.3237,0,0,0,0,.6473Z" fill="#edf4f4"/>
          <path d="M10.9936,9.6412h8.8819a.3238.3238,0,0,0,0-.6474H10.9936a.3238.3238,0,0,0,0,.6474Z" fill="#edf4f4"/>
          <path d="M10.9936,10.9358h8.8819a.3237.3237,0,0,0,0-.6473H10.9936a.3237.3237,0,0,0,0,.6473Z" fill="#edf4f4"/>
          <path d="M9.09,19.0275a.9712.9712,0,1,0,.9517.971A.9626.9626,0,0,0,9.09,19.0275Zm0,1.2946a.3237.3237,0,1,1,.3173-.3236A.3208.3208,0,0,1,9.09,20.3221Z" fill="#edf4f4"/>
          <path d="M11.628,19.0275a.9712.9712,0,1,0,.9517.971A.9626.9626,0,0,0,11.628,19.0275Zm0,1.2946a.3237.3237,0,1,1,.3172-.3236A.3208.3208,0,0,1,11.628,20.3221Z" fill="#edf4f4"/>
          <path d="M14.1657,19.0275a.9712.9712,0,1,0,.9516.971A.9626.9626,0,0,0,14.1657,19.0275Zm0,1.2946a.3237.3237,0,1,1,.3172-.3236A.3208.3208,0,0,1,14.1657,20.3221Z" fill="#edf4f4"/>
          <path d="M16.7034,19.0275a.9712.9712,0,1,0,.9516.971A.9626.9626,0,0,0,16.7034,19.0275Zm0,1.2946a.3237.3237,0,1,1,.3172-.3236A.3208.3208,0,0,1,16.7034,20.3221Z" fill="#edf4f4"/>
          <path d="M19.241,19.0275a.9712.9712,0,1,0,.9517.971A.9626.9626,0,0,0,19.241,19.0275Zm0,1.2946a.3237.3237,0,1,1,.3173-.3236A.3208.3208,0,0,1,19.241,20.3221Z" fill="#edf4f4"/>
          <path d="M21.7787,19.0275a.9712.9712,0,1,0,.9517.971A.9626.9626,0,0,0,21.7787,19.0275Zm0,1.2946a.3237.3237,0,1,1,.3172-.3236A.3208.3208,0,0,1,21.7787,20.3221Z" fill="#edf4f4"/>
          <path d="M9.09,21.2931a.9712.9712,0,1,0,.9517.971A.9627.9627,0,0,0,9.09,21.2931Zm0,1.2947a.3237.3237,0,1,1,.3173-.3237A.3209.3209,0,0,1,9.09,22.5878Z" fill="#edf4f4"/>
          <path d="M11.628,21.2931a.9712.9712,0,1,0,.9517.971A.9627.9627,0,0,0,11.628,21.2931Zm0,1.2947a.3237.3237,0,1,1,.3172-.3237A.3208.3208,0,0,1,11.628,22.5878Z" fill="#edf4f4"/>
          <path d="M14.1657,21.2931a.9712.9712,0,1,0,.9516.971A.9626.9626,0,0,0,14.1657,21.2931Zm0,1.2947a.3237.3237,0,1,1,.3172-.3237A.3208.3208,0,0,1,14.1657,22.5878Z" fill="#edf4f4"/>
          <path d="M16.7034,21.2931a.9712.9712,0,1,0,.9516.971A.9627.9627,0,0,0,16.7034,21.2931Zm0,1.2947a.3237.3237,0,1,1,.3172-.3237A.3208.3208,0,0,1,16.7034,22.5878Z" fill="#edf4f4"/>
          <path d="M19.241,21.2931a.9712.9712,0,1,0,.9517.971A.9627.9627,0,0,0,19.241,21.2931Zm0,1.2947a.3237.3237,0,1,1,.3173-.3237A.3209.3209,0,0,1,19.241,22.5878Z" fill="#edf4f4"/>
          <path d="M21.7787,21.2931a.9712.9712,0,1,0,.9517.971A.9627.9627,0,0,0,21.7787,21.2931Zm0,1.2947a.3237.3237,0,1,1,.3172-.3237A.3208.3208,0,0,1,21.7787,22.5878Z" fill="#edf4f4"/>
          <path d="M23.9992,11.9068V11.26a1.6042,1.6042,0,0,0-1.5861-1.6183V7.6992h.9517a.3206.3206,0,0,0,.3172-.3237V4.7862a.9626.9626,0,0,0-.9516-.971H9.4076a.9626.9626,0,0,0-.9517.971v4.855A1.6042,1.6042,0,0,0,6.87,11.26v.6473a.9626.9626,0,0,0-.9516.971v.3237a.9626.9626,0,0,0,.9516.971v9.0626A1.2833,1.2833,0,0,0,8.1387,24.53H22.73a1.2833,1.2833,0,0,0,1.2688-1.2947V14.1725a.9626.9626,0,0,0,.9516-.971v-.3237A.9626.9626,0,0,0,23.9992,11.9068Zm-.6344-.6473v.6473h-.9517V10.2885A.9624.9624,0,0,1,23.3648,11.26Zm-.3172-4.2077h-.6345V4.7862a.3173.3173,0,1,1,.6345,0ZM9.09,4.7862a.3211.3211,0,0,1,.3173-.3237h12.43a.9793.9793,0,0,0-.0584.3237v7.1206H9.09Zm-.6344,5.5023v1.6183H7.5043V11.26A.9624.9624,0,0,1,8.4559,10.2885Zm3.8227,3.884a3.1661,3.1661,0,0,0,6.3119,0h4.7743v2.5893a.9627.9627,0,0,1-.9517.971H8.4559a.9627.9627,0,0,1-.9516-.971V14.1725Zm1.2812,0a1.895,1.895,0,0,0,3.7494,0H17.95a2.53,2.53,0,0,1-5.0316,0Zm.6509,0h2.4476a1.2567,1.2567,0,0,1-2.4476,0Zm8.52,9.71H8.1387a.6417.6417,0,0,1-.6344-.6474V18.0484a1.5513,1.5513,0,0,0,.9516.3317H22.4131a1.5516,1.5516,0,0,0,.9517-.3317v5.1867A.6417.6417,0,0,1,22.73,23.8825Zm1.586-10.681a.321.321,0,0,1-.3172.3236H6.87a.321.321,0,0,1-.3172-.3236v-.3237a.3211.3211,0,0,1,.3172-.3237H23.9992a.3211.3211,0,0,1,.3172.3237Z" fill="#edf4f4"/>
        </g>
      </g>
    </g>
  </g>
</svg>
